<?xml version="1.0" standalone="no"?>
<!DOCTYPE svg PUBLIC "-//W3C//DTD SVG 20010904//EN"
 "http://www.w3.org/TR/2001/REC-SVG-20010904/DTD/svg10.dtd">
<svg version="1.0" xmlns="http://www.w3.org/2000/svg"
 width="367.000000pt" height="282.000000pt" viewBox="0 0 367.000000 282.000000"
 preserveAspectRatio="xMidYMid meet">

<g transform="translate(0.000000,282.000000) scale(0.100000,-0.100000)"
fill="#000000" stroke="none">
<path d="M1523 2187 c-93 -49 -195 -135 -260 -217 -96 -121 -227 -434 -257
-615 -43 -253 -46 -334 -13 -393 24 -45 95 -108 144 -128 137 -58 350 59 507
279 66 93 191 318 228 412 27 69 32 96 36 195 11 303 -80 479 -263 505 -34 5
-53 -1 -122 -38z m185 -113 c43 -28 54 -76 56 -234 1 -154 -7 -204 -60 -372
-47 -150 -94 -224 -237 -382 -85 -94 -148 -140 -219 -161 -69 -20 -111 -6
-142 48 -23 39 -24 47 -16 128 21 221 77 396 212 664 49 97 244 307 300 324
38 11 73 6 106 -15z"/>
<path d="M2125 1646 c-11 -8 -27 -42 -36 -77 -9 -35 -29 -92 -43 -127 -32 -75
-86 -300 -86 -360 0 -32 6 -49 25 -67 35 -36 58 -31 101 23 20 26 96 104 166
174 120 117 179 161 195 144 4 -4 -1 -28 -11 -54 -53 -137 -86 -229 -86 -244
0 -20 46 -58 69 -58 9 0 57 41 106 91 108 108 223 199 253 199 21 0 22 -4 22
-100 0 -161 33 -213 137 -214 41 -1 57 4 74 21 27 26 19 50 -18 58 -65 14 -70
19 -76 86 -4 34 -7 95 -7 135 0 68 -2 76 -31 109 -25 28 -38 35 -68 35 -43 0
-112 -38 -196 -109 -33 -27 -62 -46 -63 -40 -2 5 3 30 12 56 24 69 20 97 -15
138 -45 51 -83 48 -184 -14 -44 -27 -116 -80 -160 -116 -44 -37 -81 -63 -83
-57 -1 5 20 67 48 138 53 137 61 191 33 216 -28 24 -57 29 -78 14z"/>
</g>
</svg>
